<?xml version="1.0" encoding="utf-8"?>
<!-- Generator: Adobe Illustrator 20.0.0, SVG Export Plug-In . SVG Version: 6.00 Build 0)  -->
<svg version="1.1" id="Wheatley" xmlns="http://www.w3.org/2000/svg" xmlns:xlink="http://www.w3.org/1999/xlink" x="0px" y="0px"
	 viewBox="0 0 300 300" style="enable-background:new 0 0 300 300;" xml:space="preserve">
<style type="text/css">
	.st0{fill:none;stroke:#C0DEED;stroke-width:0.5;stroke-miterlimit:10;}
	.st1{fill:none;stroke:#C0DEED;stroke-width:8;stroke-miterlimit:10;}
	.st2{fill:none;stroke:#C0DEED;stroke-width:2;stroke-miterlimit:10;}
	.st3{fill:none;stroke:#1DCAFF;stroke-miterlimit:10;}
	.st4{fill:#1DCAFF;}
	.st5{fill:none;stroke:#0084B4;stroke-width:3;stroke-miterlimit:10;}
	.st6{fill:#0084B4;stroke:#0084B4;stroke-miterlimit:10;}
	.st7{fill:#F49E37;}
	.st8{fill:#41ACD7;}
	.st9{fill:none;stroke:#0084B4;stroke-miterlimit:10;}
</style>
<g id="corering">
	<circle class="st0" cx="149.4" cy="148.6" r="59.7"/>
	<circle class="st0" cx="149.4" cy="148.6" r="55.6"/>
	<circle class="st1" cx="149.4" cy="148.6" r="34.5"/>
	<circle class="st2" cx="149.4" cy="148.6" r="43.9"/>
</g>
<g id="dashedring">
	<line class="st3" x1="173.9" y1="30.6" x2="171.7" y2="42"/>
	<line class="st3" x1="196.7" y1="37.6" x2="192.3" y2="48.3"/>
	<line class="st3" x1="150.2" y1="28.2" x2="150.2" y2="39.9"/>
	<line class="st3" x1="150.2" y1="260.9" x2="150.2" y2="271.4"/>
	<line class="st3" x1="217.7" y1="49" x2="211.3" y2="58.5"/>
	<line class="st3" x1="236" y1="64.1" x2="228" y2="72.2"/>
	<line class="st3" x1="251" y1="82.6" x2="241.6" y2="88.9"/>
	<line class="st3" x1="251.8" y1="107.9" x2="262.1" y2="103.6"/>
	<line class="st3" x1="258.1" y1="128.5" x2="269" y2="126.4"/>
	<line class="st3" x1="260.2" y1="150" x2="271.2" y2="150"/>
	<line class="st3" x1="258.2" y1="171.5" x2="268.8" y2="173.6"/>
	<line class="st3" x1="252" y1="192.2" x2="262" y2="196.3"/>
	<line class="st3" x1="241.9" y1="211.3" x2="250.8" y2="217.2"/>
	<line class="st3" x1="235.7" y1="235.6" x2="228.2" y2="228.1"/>
	<line class="st3" x1="211.6" y1="241.9" x2="217.4" y2="250.6"/>
	<line class="st3" x1="192.6" y1="252.3" x2="196.6" y2="261.8"/>
	<line class="st3" x1="171.8" y1="258.7" x2="173.8" y2="268.8"/>
	<line class="st3" x1="128.5" y1="258.8" x2="126.6" y2="269"/>
	<line class="st3" x1="107.7" y1="252.6" x2="103.8" y2="262.2"/>
	<line class="st3" x1="88.4" y1="242.4" x2="82.7" y2="251"/>
	<line class="st3" x1="71.5" y1="228.6" x2="64.2" y2="236"/>
	<line class="st3" x1="57.8" y1="211.7" x2="48.9" y2="217.7"/>
	<line class="st3" x1="47.5" y1="192.5" x2="37.6" y2="196.6"/>
	<line class="st3" x1="30.5" y1="173.8" x2="41.2" y2="171.6"/>
	<line class="st3" x1="28.2" y1="150" x2="39.2" y2="150"/>
	<line class="st3" x1="30.4" y1="126.2" x2="41.3" y2="128.4"/>
	<line class="st3" x1="37.4" y1="103.3" x2="47.7" y2="107.6"/>
	<line class="st3" x1="48.6" y1="82.1" x2="58.1" y2="88.4"/>
	<line class="st3" x1="63.9" y1="63.7" x2="72" y2="71.7"/>
	<line class="st3" x1="82.4" y1="48.5" x2="88.8" y2="58.1"/>
	<line class="st3" x1="103.5" y1="37.3" x2="107.9" y2="47.9"/>
	<line class="st3" x1="126.4" y1="30.5" x2="128.7" y2="41.9"/>
</g>
<g id="insidering_1_">
	<path class="st4" d="M159,69.7c55.6,4.4,78.5,59.5,72.8,87.4c-3.6,1.1-3.6,1.1-3.6,1.1c-3,47.3-47.8,66.3-52.2,66.8l-2.2,3.5
		c-57.9,15.1-112.5-27.4-102.6-95.8C93.4,60.9,154.8,70.5,159,69.7z M214.5,175.9c0,0,18.8-40.3-15.9-76.1c4.3-1.5,4.3-1.5,4.3-1.5
		s-18.3-22.1-54.4-21.5c-36.1,0.7-54.8,27.4-54.8,27.4l1.2,1.6c-18.2,22.6-24.4,60.7,2.3,91.2l-0.8,3.1c0,0,9.4,11.6,27,19
		c5.3-1.7,0,0,5.3-1.7C164.1,228.1,201,209.6,214.5,175.9z"/>
</g>
<g id="outsidering">
	<circle class="st5" cx="150" cy="150" r="135.7"/>
	<path class="st6" d="M195.6,21.6c60,19.6,87.2,82.2,87.7,103.5c0,0,0,0-11.3-6.8c-13.5-63.3-74-85.2-74-85.2L195.6,21.6z"/>
	<path class="st6" d="M33.8,197.2c0,0,22.5,61,90.2,74.9c0,0-1.9,2.6-6.8,8.6c-39.3-7.2-78.1-40.9-91.8-78.9L33.8,197.2z"/>
	<path class="st6" d="M59.5,62.4c0,0-17.2,18.7-23.9,36c-4.8-4.9-7.1-8.9-7.1-8.9s8-19.6,27.9-38.5C59,60.1,59.5,62.4,59.5,62.4z"/>
</g>
<g id="statusring_1_">
	<path id="goldenring" class="st7" d="M65.5,145.8c1.3-69.5,100.6-118.6,156.3-41.6c0,0,1.1-0.4,2.9-1.7
		C205.6,69.9,141.8,37.3,88.4,88l-3.9-0.1c0,0-17.4,19.1-21.8,39.8c1.9,3,1.9,3,1.9,3s-1.9,9-2.1,14.9
		C64.5,145.8,65.5,145.8,65.5,145.8z"/>
	<g id="complimentaryring">
		<path class="st8" d="M49.8,190.7c6.7,14.9,32.6,70.2,113,66.3c0,0,0,0,1.7-4.1c40.8-5.8,74.1-33.7,84.9-68.8c0,0,0.7-0.2,4.6-1.5
			c2.4-5,10.1-36.6,0.8-65.8l-4.6-1.6c0,0-4.6-13-7.9-17.9c-4.6,2.4-11.9,6.2-17.2,9.4c4.4,4.4,32.4,66.8-22.5,110.8
			c-47.2,38.6-134.6,15.6-140-67.7H45.3c0,0-0.3,16.5,6.8,35.9C49.8,190.7,49.8,190.7,49.8,190.7"/>
		<line class="st9" x1="74.9" y1="200.1" x2="67.6" y2="205.1"/>
		<line class="st9" x1="234.1" y1="112.9" x2="242.8" y2="109.2"/>
		<line class="st9" x1="239.3" y1="130.2" x2="248.4" y2="128.3"/>
		<line class="st9" x1="241" y1="148.1" x2="250.1" y2="148.1"/>
		<line class="st9" x1="239.4" y1="166.2" x2="248.3" y2="168.1"/>
		<line class="st9" x1="234.3" y1="183.6" x2="242.6" y2="187.2"/>
		<line class="st9" x1="226" y1="199.7" x2="233.4" y2="204.7"/>
		<line class="st9" x1="214.8" y1="213.8" x2="221" y2="220.2"/>
		<line class="st9" x1="201.2" y1="225.4" x2="206" y2="232.9"/>
		<line class="st9" x1="185.5" y1="234.1" x2="188.9" y2="242.3"/>
		<line class="st9" x1="168.5" y1="239.5" x2="170.2" y2="248.1"/>
		<line class="st9" x1="150.8" y1="241.4" x2="150.8" y2="250.2"/>
		<line class="st9" x1="133" y1="239.7" x2="131.3" y2="248.3"/>
		<line class="st9" x1="115.9" y1="234.4" x2="112.5" y2="242.5"/>
		<line class="st9" x1="100" y1="225.8" x2="95.2" y2="233.2"/>
		<line class="st9" x1="86.2" y1="214.2" x2="80.1" y2="220.6"/>
		<line class="st9" x1="58.2" y1="187.4" x2="66.4" y2="184"/>
		<line class="st9" x1="52.4" y1="168.2" x2="61.3" y2="166.4"/>
	</g>
</g>
</svg>
