<?xml version="1.0" encoding="utf-8"?>
<!-- Generator: Adobe Illustrator 20.0.0, SVG Export Plug-In . SVG Version: 6.00 Build 0)  -->
<svg version="1.1" xmlns="http://www.w3.org/2000/svg" xmlns:xlink="http://www.w3.org/1999/xlink" x="0px" y="0px"
	 viewBox="0 0 200 200" style="enable-background:new 0 0 200 200;" xml:space="preserve">
<style type="text/css">
	.st20{fill:#1286B2;}
	.st21{fill:#FFFFFF;}
	.st22{fill:none;stroke:#FFFFFF;stroke-width:8;stroke-miterlimit:10;}
</style>
<g id="Layer_2">
	<rect x="-0.2" class="st20" width="200" height="200"/>
</g>
<g id="Layer_1">
	<g id="XMLID_1_">
		<g>
			<path class="st21" d="M136.1,89.6v47.8c0,4.4-3.6,8-8,8H71.9c-4.4,0-8-3.6-8-8V89.6c0-4.4,3.6-8,8-8h56.1
				C132.5,81.6,136.1,85.2,136.1,89.6z M127.2,135.2V90.4H72.6v44.9H127.2z"/>
		</g>
		<g>
		</g>
	</g>
	<path class="st22" d="M81.5,72.2c0-9.7,8.5-17.6,19.1-17.6"/>
	<path class="st22" d="M118.7,72.2c0-9.7-8.1-17.6-18.2-17.6"/>
	<line class="st22" x1="118.7" y1="72.2" x2="118.7" y2="87.2"/>
	<circle class="st21" cx="99.9" cy="113.4" r="10.1"/>
</g>
</svg>
